<svg xmlns="http://www.w3.org/2000/svg" viewBox="0 0 1600 1000" role="img" aria-labelledby="title desc">
  <title id="title">Modern portfolio hero workspace</title>
  <desc id="desc">A stylized desk with a laptop showing website layout panels and soft city lights.</desc>
  <defs><linearGradient id="sky" x1="0" x2="1" y1="0" y2="1"><stop offset="0" stop-color="#0b1824"/><stop offset=".55" stop-color="#173b45"/><stop offset="1" stop-color="#c18a4a"/></linearGradient><linearGradient id="desk" x1="0" x2="1"><stop offset="0" stop-color="#102331"/><stop offset="1" stop-color="#38505a"/></linearGradient></defs>
  <rect width="1600" height="1000" fill="url(#sky)"/><g opacity=".25"><rect x="86" y="150" width="105" height="510" fill="#d9f6ff"/><rect x="244" y="92" width="82" height="568" fill="#b9e7ef"/><rect x="392" y="190" width="142" height="470" fill="#d9f6ff"/><rect x="1060" y="112" width="118" height="548" fill="#d9f6ff"/><rect x="1236" y="168" width="92" height="492" fill="#b9e7ef"/><rect x="1390" y="220" width="132" height="440" fill="#d9f6ff"/></g>
  <ellipse cx="800" cy="716" rx="720" ry="104" fill="#08121b" opacity=".5"/><rect x="264" y="662" width="1072" height="138" rx="22" fill="url(#desk)"/><rect x="520" y="340" width="560" height="342" rx="26" fill="#091923"/><rect x="548" y="368" width="504" height="286" rx="16" fill="#e7f6f7"/><rect x="592" y="414" width="160" height="22" rx="11" fill="#146c94"/><rect x="592" y="462" width="328" height="14" rx="7" fill="#8ac9d8"/><rect x="592" y="492" width="244" height="14" rx="7" fill="#b3d8df"/><rect x="592" y="542" width="132" height="72" rx="12" fill="#d8f1ea"/><rect x="750" y="542" width="132" height="72" rx="12" fill="#f7ce8c"/><rect x="908" y="542" width="92" height="72" rx="12" fill="#86bdd3"/><path d="M676 682h248l42 64H634z" fill="#0c1c28"/><rect x="584" y="742" width="432" height="18" rx="9" fill="#5d7c86"/>
</svg>
